<mxfile host="65bd71144e">
    <diagram id="HGop-Nxr37AIR5w5kz6b" name="第1頁">
        <mxGraphModel dx="890" dy="682" grid="1" gridSize="10" guides="1" tooltips="1" connect="1" arrows="1" fold="1" page="1" pageScale="1" pageWidth="827" pageHeight="1169" math="0" shadow="0">
            <root>
                <mxCell id="0"/>
                <mxCell id="1" parent="0"/>
                <mxCell id="2" value="Chairman&lt;br&gt;" style="shape=umlActor;verticalLabelPosition=bottom;verticalAlign=top;html=1;outlineConnect=0;" vertex="1" parent="1">
                    <mxGeometry x="210" y="60" width="30" height="60" as="geometry"/>
                </mxCell>
                <mxCell id="3" value="Household" style="shape=umlActor;verticalLabelPosition=bottom;verticalAlign=top;html=1;outlineConnect=0;" vertex="1" parent="1">
                    <mxGeometry x="270" y="60" width="30" height="60" as="geometry"/>
                </mxCell>
                <mxCell id="4" value="add" style="shape=umlFrame;whiteSpace=wrap;html=1;width=40;height=30;boundedLbl=1;verticalAlign=middle;align=left;spacingLeft=5;" vertex="1" parent="1">
                    <mxGeometry x="160" y="140" width="600" height="360" as="geometry"/>
                </mxCell>
                <mxCell id="13" value="&amp;lt;announce&amp;gt;" style="html=1;verticalAlign=bottom;endArrow=classicThin;fontSize=21;targetPerimeterSpacing=30;entryX=0;entryY=0.4;entryDx=0;entryDy=0;entryPerimeter=0;endFill=1;strokeWidth=2;" edge="1" parent="1" target="22">
                    <mxGeometry x="0.5365" y="-9" relative="1" as="geometry">
                        <mxPoint x="230" y="241" as="sourcePoint"/>
                        <mxPoint x="594.5" y="241.03999999999996" as="targetPoint"/>
                        <Array as="points">
                            <mxPoint x="590" y="241"/>
                        </Array>
                        <mxPoint as="offset"/>
                    </mxGeometry>
                </mxCell>
                <mxCell id="14" value="&lt;font style=&quot;font-size: 14px;&quot;&gt;&amp;lt;notificaion of success or failure &amp;gt;&lt;/font&gt;" style="html=1;verticalAlign=bottom;endArrow=classicThin;dashed=1;endSize=8;exitX=0.1;exitY=0.788;fontSize=21;endFill=0;strokeWidth=3;exitDx=0;exitDy=0;exitPerimeter=0;" edge="1" parent="1" source="22">
                    <mxGeometry x="0.1781" y="14" relative="1" as="geometry">
                        <mxPoint x="230" y="270" as="targetPoint"/>
                        <mxPoint as="offset"/>
                        <mxPoint x="601" y="270" as="sourcePoint"/>
                    </mxGeometry>
                </mxCell>
                <mxCell id="15" value="&lt;font style=&quot;font-size: 17px;&quot;&gt;&amp;lt;Response&amp;gt;&lt;/font&gt;" style="html=1;verticalAlign=bottom;endArrow=classicThin;fontSize=21;targetPerimeterSpacing=30;entryX=0.5;entryY=0.25;entryDx=0;entryDy=0;entryPerimeter=0;endFill=1;strokeWidth=2;" edge="1" parent="1" target="24">
                    <mxGeometry x="0.4121" y="-9" relative="1" as="geometry">
                        <mxPoint x="290" y="390" as="sourcePoint"/>
                        <mxPoint x="567.5" y="390.03999999999996" as="targetPoint"/>
                        <Array as="points">
                            <mxPoint x="563" y="390"/>
                        </Array>
                        <mxPoint as="offset"/>
                    </mxGeometry>
                </mxCell>
                <mxCell id="16" value="&lt;font style=&quot;font-size: 13px;&quot;&gt;&amp;lt;Response of&lt;br&gt;success or failure&amp;gt;&lt;/font&gt;" style="html=1;verticalAlign=bottom;endArrow=classicThin;dashed=1;endSize=8;fontSize=21;targetPerimeterSpacing=0;endFill=0;strokeWidth=3;exitX=0.1;exitY=0.6;exitDx=0;exitDy=0;exitPerimeter=0;" edge="1" parent="1" source="24">
                    <mxGeometry x="-0.1765" y="30" relative="1" as="geometry">
                        <mxPoint x="290" y="420" as="targetPoint"/>
                        <mxPoint x="585" y="420" as="sourcePoint"/>
                        <mxPoint as="offset"/>
                    </mxGeometry>
                </mxCell>
                <mxCell id="18" style="edgeStyle=none;html=1;dashed=1;fontSize=10;endArrow=none;endFill=0;targetPerimeterSpacing=0;exitX=0.5;exitY=0.5;exitDx=0;exitDy=0;exitPerimeter=0;entryX=0.215;entryY=0.997;entryDx=0;entryDy=0;entryPerimeter=0;" edge="1" parent="1" source="3" target="27">
                    <mxGeometry relative="1" as="geometry">
                        <mxPoint x="290" y="970" as="targetPoint"/>
                        <mxPoint x="285.18072289156623" y="170" as="sourcePoint"/>
                    </mxGeometry>
                </mxCell>
                <mxCell id="19" style="edgeStyle=none;html=1;dashed=1;fontSize=10;endArrow=none;endFill=0;targetPerimeterSpacing=0;exitX=0.5;exitY=0.5;exitDx=0;exitDy=0;exitPerimeter=0;entryX=0.11;entryY=1;entryDx=0;entryDy=0;entryPerimeter=0;" edge="1" parent="1" source="2" target="27">
                    <mxGeometry relative="1" as="geometry">
                        <mxPoint x="227.5" y="960" as="targetPoint"/>
                        <mxPoint x="222.5" y="130" as="sourcePoint"/>
                    </mxGeometry>
                </mxCell>
                <mxCell id="20" value="&lt;font style=&quot;font-size: 21px;&quot;&gt;app&lt;/font&gt;" style="rounded=1;whiteSpace=wrap;html=1;fillColor=#1ba1e2;fontColor=#ffffff;strokeColor=#006EAF;" vertex="1" parent="1">
                    <mxGeometry x="550" y="20" width="120" height="100" as="geometry"/>
                </mxCell>
                <mxCell id="21" style="edgeStyle=none;html=1;entryX=0.5;entryY=1;entryDx=0;entryDy=0;fontSize=21;dashed=1;endArrow=none;endFill=0;" edge="1" parent="1">
                    <mxGeometry relative="1" as="geometry">
                        <mxPoint x="609.5" y="210" as="sourcePoint"/>
                        <mxPoint x="609.5" y="120" as="targetPoint"/>
                    </mxGeometry>
                </mxCell>
                <mxCell id="22" value="" style="html=1;points=[];perimeter=orthogonalPerimeter;fontSize=21;fillColor=#1ba1e2;fontColor=#ffffff;strokeColor=#006EAF;" vertex="1" parent="1">
                    <mxGeometry x="605" y="210" width="10" height="80" as="geometry"/>
                </mxCell>
                <mxCell id="23" style="edgeStyle=none;html=1;dashed=1;fontSize=21;endArrow=none;endFill=0;targetPerimeterSpacing=0;" edge="1" parent="1">
                    <mxGeometry relative="1" as="geometry">
                        <mxPoint x="609.5" y="290" as="sourcePoint"/>
                        <mxPoint x="609.5" y="370" as="targetPoint"/>
                    </mxGeometry>
                </mxCell>
                <mxCell id="24" value="" style="html=1;points=[];perimeter=orthogonalPerimeter;fontSize=21;fillColor=#1ba1e2;fontColor=#ffffff;strokeColor=#006EAF;" vertex="1" parent="1">
                    <mxGeometry x="605" y="370" width="10" height="80" as="geometry"/>
                </mxCell>
                <mxCell id="26" style="edgeStyle=none;html=1;strokeWidth=1;fontSize=13;endArrow=none;endFill=0;targetPerimeterSpacing=0;dashed=1;" edge="1" parent="1">
                    <mxGeometry relative="1" as="geometry">
                        <mxPoint x="609.5" y="540" as="sourcePoint"/>
                        <mxPoint x="609.5" y="450" as="targetPoint"/>
                    </mxGeometry>
                </mxCell>
                <mxCell id="27" value="&lt;font style=&quot;font-size: 10px;&quot;&gt;modity and&lt;br&gt;&lt;div style=&quot;text-align: right;&quot;&gt;&lt;span style=&quot;background-color: initial;&quot;&gt;deledt&lt;/span&gt;&lt;span style=&quot;background-color: initial; white-space: pre;&quot;&gt;&#9;&lt;/span&gt;&lt;/div&gt;&lt;/font&gt;" style="shape=umlFrame;whiteSpace=wrap;html=1;fontSize=21;" vertex="1" parent="1">
                    <mxGeometry x="160" y="530" width="600" height="350" as="geometry"/>
                </mxCell>
                <mxCell id="28" style="edgeStyle=none;html=1;strokeWidth=3;fontSize=13;endArrow=classicThin;endFill=0;targetPerimeterSpacing=0;entryX=0;entryY=0.55;entryDx=0;entryDy=0;entryPerimeter=0;" edge="1" parent="1" target="34">
                    <mxGeometry relative="1" as="geometry">
                        <mxPoint x="231" y="585" as="sourcePoint"/>
                        <mxPoint x="596" y="585" as="targetPoint"/>
                    </mxGeometry>
                </mxCell>
                <mxCell id="29" value="&amp;lt;modify&amp;gt;" style="edgeLabel;html=1;align=center;verticalAlign=middle;resizable=0;points=[];fontSize=13;" vertex="1" connectable="0" parent="28">
                    <mxGeometry x="0.495" y="1" relative="1" as="geometry">
                        <mxPoint as="offset"/>
                    </mxGeometry>
                </mxCell>
                <mxCell id="30" value="&lt;span style=&quot;font-size: 14px;&quot;&gt;&amp;lt;modification success of failure&amp;gt;&lt;/span&gt;" style="html=1;verticalAlign=bottom;endArrow=classicThin;dashed=1;endSize=8;exitX=0.1;exitY=0.875;fontSize=21;endFill=0;strokeWidth=3;exitDx=0;exitDy=0;exitPerimeter=0;" edge="1" parent="1" source="34">
                    <mxGeometry x="0.1781" y="14" relative="1" as="geometry">
                        <mxPoint x="230" y="610" as="targetPoint"/>
                        <mxPoint x="595" y="610" as="sourcePoint"/>
                        <mxPoint as="offset"/>
                    </mxGeometry>
                </mxCell>
                <mxCell id="31" style="edgeStyle=none;html=1;strokeWidth=3;fontSize=13;endArrow=classicThin;endFill=0;targetPerimeterSpacing=0;entryX=-0.1;entryY=0.375;entryDx=0;entryDy=0;entryPerimeter=0;" edge="1" parent="1" target="36">
                    <mxGeometry relative="1" as="geometry">
                        <mxPoint x="230" y="760" as="sourcePoint"/>
                        <mxPoint x="595" y="760" as="targetPoint"/>
                    </mxGeometry>
                </mxCell>
                <mxCell id="32" value="&amp;lt;delete&amp;gt;" style="edgeLabel;html=1;align=center;verticalAlign=middle;resizable=0;points=[];fontSize=13;" vertex="1" connectable="0" parent="31">
                    <mxGeometry x="0.495" y="1" relative="1" as="geometry">
                        <mxPoint as="offset"/>
                    </mxGeometry>
                </mxCell>
                <mxCell id="33" value="&lt;span style=&quot;font-size: 14px;&quot;&gt;&amp;lt;Delete success or failure&amp;gt;&lt;/span&gt;" style="html=1;verticalAlign=bottom;endArrow=classicThin;dashed=1;endSize=8;exitX=0.5;exitY=0.75;fontSize=21;endFill=0;strokeWidth=3;exitDx=0;exitDy=0;exitPerimeter=0;" edge="1" parent="1" source="36">
                    <mxGeometry x="0.1781" y="14" relative="1" as="geometry">
                        <mxPoint x="230" y="790" as="targetPoint"/>
                        <mxPoint x="585" y="790" as="sourcePoint"/>
                        <mxPoint as="offset"/>
                    </mxGeometry>
                </mxCell>
                <mxCell id="34" value="" style="html=1;points=[];perimeter=orthogonalPerimeter;fontSize=21;fillColor=#1ba1e2;fontColor=#ffffff;strokeColor=#006EAF;" vertex="1" parent="1">
                    <mxGeometry x="605" y="540" width="10" height="80" as="geometry"/>
                </mxCell>
                <mxCell id="35" style="edgeStyle=none;html=1;dashed=1;strokeWidth=1;fontSize=13;endArrow=none;endFill=0;targetPerimeterSpacing=0;" edge="1" parent="1">
                    <mxGeometry relative="1" as="geometry">
                        <mxPoint x="609.5" y="730" as="sourcePoint"/>
                        <mxPoint x="609.5" y="620" as="targetPoint"/>
                    </mxGeometry>
                </mxCell>
                <mxCell id="36" value="" style="html=1;points=[];perimeter=orthogonalPerimeter;fontSize=21;fillColor=#1ba1e2;fontColor=#ffffff;strokeColor=#006EAF;" vertex="1" parent="1">
                    <mxGeometry x="605" y="730" width="10" height="80" as="geometry"/>
                </mxCell>
                <mxCell id="37" style="edgeStyle=none;html=1;entryX=0.774;entryY=1.008;entryDx=0;entryDy=0;entryPerimeter=0;dashed=1;strokeWidth=1;fontSize=13;endArrow=none;endFill=0;targetPerimeterSpacing=0;" edge="1" parent="1">
                    <mxGeometry relative="1" as="geometry">
                        <mxPoint x="609.5000000000001" y="810" as="sourcePoint"/>
                        <mxPoint x="609.5000000000001" y="882.8800000000001" as="targetPoint"/>
                    </mxGeometry>
                </mxCell>
            </root>
        </mxGraphModel>
    </diagram>
</mxfile>